<svg width="348" height="371" viewBox="0 0 348 371" fill="none" xmlns="http://www.w3.org/2000/svg">
<path d="M104.023 186.199H245.362V247.65H104.023V186.199Z" fill="white"/>
<path d="M250.278 199.103C250.278 178.894 242.315 159.512 228.14 145.222C213.965 130.932 194.739 122.903 174.693 122.903C154.646 122.903 135.421 130.932 121.246 145.222C107.071 159.512 99.1073 178.894 99.1073 199.103L174.693 199.103H250.278Z" fill="white"/>
<path fill-rule="evenodd" clip-rule="evenodd" d="M175 218.153C218.272 218.153 253.351 183.075 253.351 139.803C253.351 96.5306 218.272 61.4517 175 61.4517C131.728 61.4517 96.6492 96.5306 96.6492 139.803C96.6492 183.075 131.728 218.153 175 218.153ZM175 279.605C252.211 279.605 314.803 217.013 314.803 139.803C314.803 62.5917 252.211 0 175 0C97.7892 0 35.1975 62.5917 35.1975 139.803C35.1975 217.013 97.7892 279.605 175 279.605Z" fill="white"/>
<path d="M2.752 338.664C2.752 334.312 3.73333 330.408 5.696 326.952C7.65867 323.453 10.3253 320.723 13.696 318.76C17.1093 316.797 20.8853 315.816 25.024 315.816C29.888 315.816 34.1333 316.989 37.76 319.336C41.3867 321.683 44.032 325.011 45.696 329.32H38.72C37.4827 326.632 35.6907 324.563 33.344 323.112C31.04 321.661 28.2667 320.936 25.024 320.936C21.9093 320.936 19.1147 321.661 16.64 323.112C14.1653 324.563 12.224 326.632 10.816 329.32C9.408 331.965 8.704 335.08 8.704 338.664C8.704 342.205 9.408 345.32 10.816 348.008C12.224 350.653 14.1653 352.701 16.64 354.152C19.1147 355.603 21.9093 356.328 25.024 356.328C28.2667 356.328 31.04 355.624 33.344 354.216C35.6907 352.765 37.4827 350.696 38.72 348.008H45.696C44.032 352.275 41.3867 355.581 37.76 357.928C34.1333 360.232 29.888 361.384 25.024 361.384C20.8853 361.384 17.1093 360.424 13.696 358.504C10.3253 356.541 7.65867 353.832 5.696 350.376C3.73333 346.92 2.752 343.016 2.752 338.664ZM80.7335 351.08H61.2775L57.6935 361H51.5495L67.6775 316.648H74.3975L90.4615 361H84.3175L80.7335 351.08ZM79.0695 346.344L71.0055 323.816L62.9415 346.344H79.0695ZM103.315 356.264H118.931V361H97.4905V316.392H103.315V356.264ZM130.94 356.264H146.556V361H125.116V316.392H130.94V356.264ZM195.551 315.88V325.864H177.503V333.8H190.815V343.336H177.503V361H164.959V315.88H195.551ZM213.378 351.4H227.394V361H200.834V315.88H213.378V351.4ZM253.904 361.448C249.68 361.448 245.797 360.467 242.256 358.504C238.714 356.499 235.898 353.747 233.808 350.248C231.76 346.707 230.736 342.717 230.736 338.28C230.736 333.843 231.76 329.875 233.808 326.376C235.898 322.835 238.714 320.083 242.256 318.12C245.797 316.157 249.68 315.176 253.904 315.176C258.17 315.176 262.053 316.157 265.552 318.12C269.093 320.083 271.888 322.835 273.936 326.376C275.984 329.875 277.008 333.843 277.008 338.28C277.008 342.717 275.984 346.707 273.936 350.248C271.888 353.747 269.093 356.499 265.552 358.504C262.01 360.467 258.128 361.448 253.904 361.448ZM253.904 349.8C257.104 349.8 259.621 348.755 261.456 346.664C263.333 344.573 264.272 341.779 264.272 338.28C264.272 334.696 263.333 331.88 261.456 329.832C259.621 327.741 257.104 326.696 253.904 326.696C250.661 326.696 248.122 327.741 246.288 329.832C244.453 331.88 243.536 334.696 243.536 338.28C243.536 341.821 244.453 344.637 246.288 346.728C248.122 348.776 250.661 349.8 253.904 349.8ZM346.199 315.88L335.127 361H319.703L313.495 333.352L307.159 361H291.735L280.791 315.88H294.359L299.607 346.728L306.711 315.88H320.471L327.383 346.472L332.631 315.88H346.199Z" fill="white"/>
</svg>
